# Blender 4.2.20 LTS
# www.blender.org
mtllib model.mtl
o Base
v 0.536831 -1.257050 -0.720504
v 0.536831 -0.944188 -0.720504
v 0.536831 -1.257050 -1.717826
v 0.536831 -0.944188 -1.717826
v 2.295415 -1.257050 -0.720504
v 2.295415 -0.944188 -0.720504
v 2.295415 -1.257050 -1.717826
v 2.295415 -0.944188 -1.717826
vn -1.0000 -0.0000 -0.0000
vn -0.0000 -0.0000 -1.0000
vn 1.0000 -0.0000 -0.0000
vn -0.0000 -0.0000 1.0000
vn -0.0000 -1.0000 -0.0000
vn -0.0000 1.0000 -0.0000
vt 0.375000 0.000000
vt 0.625000 0.000000
vt 0.625000 0.250000
vt 0.375000 0.250000
vt 0.625000 0.500000
vt 0.375000 0.500000
vt 0.625000 0.750000
vt 0.375000 0.750000
vt 0.625000 1.000000
vt 0.375000 1.000000
vt 0.125000 0.500000
vt 0.125000 0.750000
vt 0.875000 0.500000
vt 0.875000 0.750000
s 0
f 1/1/1 2/2/1 4/3/1 3/4/1
f 3/4/2 4/3/2 8/5/2 7/6/2
f 7/6/3 8/5/3 6/7/3 5/8/3
f 5/8/4 6/7/4 2/9/4 1/10/4
f 3/11/5 7/6/5 5/8/5 1/12/5
f 8/5/6 4/13/6 2/14/6 6/7/6
o column
v 0.534400 -0.943030 -1.366168
v 0.534400 0.707552 -1.366168
v 0.534400 -0.943030 -1.056970
v 0.534400 0.707552 -1.056970
v 1.034547 -0.943030 -1.366168
v 1.034547 0.707552 -1.366168
v 1.034547 -0.943030 -1.056970
v 1.034547 0.707552 -1.056970
vn -1.0000 -0.0000 -0.0000
vn -0.0000 -0.0000 1.0000
vn 1.0000 -0.0000 -0.0000
vn -0.0000 -0.0000 -1.0000
vn -0.0000 -1.0000 -0.0000
vn -0.0000 1.0000 -0.0000
vt 0.375000 0.000000
vt 0.375000 0.250000
vt 0.625000 0.250000
vt 0.625000 0.000000
vt 0.375000 0.500000
vt 0.625000 0.500000
vt 0.375000 0.750000
vt 0.625000 0.750000
vt 0.375000 1.000000
vt 0.625000 1.000000
vt 0.125000 0.500000
vt 0.125000 0.750000
vt 0.875000 0.750000
vt 0.875000 0.500000
s 0
f 9/15/7 11/16/7 12/17/7 10/18/7
f 11/16/8 15/19/8 16/20/8 12/17/8
f 15/19/9 13/21/9 14/22/9 16/20/9
f 13/21/10 9/23/10 10/24/10 14/22/10
f 11/25/11 9/26/11 13/21/11 15/19/11
f 16/20/12 14/22/12 10/27/12 12/28/12
o way_cover_upper
v 1.362373 -0.527795 -1.590503
v 1.862152 -0.527795 -0.716709
v 1.862152 -0.527795 -1.706433
v 1.362373 -0.527795 -1.706433
v 1.362373 -0.527795 -0.716709
v 1.862152 -0.527795 -1.706433
v 1.362373 -0.527795 -1.706433
v 1.862152 -0.720714 -2.435656
v 1.362373 -0.720714 -2.435656
v 1.362373 -0.720714 0.012514
v 1.862152 -0.720714 0.012514
v 1.862152 -0.674714 -2.435656
v 1.862152 -0.617637 -2.385632
v 1.362373 -0.617637 -2.385632
v 1.362373 -0.674714 -2.435656
v 1.862152 -0.616166 -0.048634
v 1.862152 -0.685935 0.012514
v 1.362373 -0.685935 0.012514
v 1.362373 -0.616166 -0.048634
v 1.362373 -0.612646 -2.347898
v 1.362373 -0.607655 -2.310165
v 1.362373 -0.602663 -2.272432
v 1.362373 -0.597672 -2.234699
v 1.362373 -0.592681 -2.196965
v 1.362373 -0.587690 -2.159232
v 1.362373 -0.582698 -2.121499
v 1.362373 -0.577707 -2.083765
v 1.362373 -0.572716 -2.046032
v 1.362373 -0.567725 -2.008299
v 1.362373 -0.562733 -1.970566
v 1.362373 -0.557742 -1.932832
v 1.362373 -0.552751 -1.895099
v 1.362373 -0.547760 -1.857366
v 1.362373 -0.542768 -1.819633
v 1.362373 -0.537777 -1.781900
v 1.362373 -0.532786 -1.744166
v 1.862152 -0.720714 -2.026719
v 1.362373 -0.720714 -2.026719
v 1.362373 -0.722743 -1.590503
v 1.862152 -0.722743 -1.590502
v 1.362373 -0.527795 -1.590503
v 1.362373 -0.720714 -1.590503
v 1.362373 -0.852997 -2.025447
v 1.362373 -0.869532 -1.590503
v 1.862152 -0.869532 -1.590502
v 1.862152 -0.852997 -2.025447
v 1.862152 -0.722743 -0.824318
v 1.362373 -0.722743 -0.824326
v 1.362373 -0.720714 -0.384378
v 1.862152 -0.720714 -0.384378
v 1.862152 -0.862147 -0.824318
v 1.362373 -0.862147 -0.824326
v 1.862152 -0.862147 -0.716709
v 1.862152 -0.862147 -0.384378
v 1.362373 -0.862147 -0.384378
vn -0.0000 -0.0000 -1.0000
vn -0.0000 1.0000 -0.0000
vn -0.0000 -1.0000 -0.0000
vn -0.0000 0.9914 -0.1311
vn -0.0000 0.6591 -0.7520
vn -0.0000 0.6591 0.7520
vn -0.0000 -0.0000 1.0000
vn -0.0000 -0.9993 -0.0380
vn -0.0000 -0.0096 -1.0000
vn -0.0000 0.9914 0.1311
vn 1.0000 -0.0000 -0.0000
vn -1.0000 -0.0000 -0.0000
vt 0.375000 0.729464
vt 0.344210 0.071833
vt 0.500000 0.500000
vt 0.500000 0.250000
vt 0.125000 0.750000
vt 0.375000 0.750000
vt 0.000000 0.000000
vt 0.404805 0.500000
vt 0.404805 0.250000
vt 0.437500 0.250000
vt 0.437500 0.500000
vt 0.375000 0.250000
vt 0.375000 0.500000
vt 0.397534 1.000000
vt 0.397534 0.750000
vt 0.442741 0.750000
vt 0.442741 0.916146
vt 0.375000 1.000000
vt 0.125000 0.500000
vt 0.375000 0.583247
vt 0.125000 0.583247
vt 0.500000 0.750000
vt 0.500000 0.000000
vt 0.441787 0.500000
vt 0.375000 0.020538
vt 0.375000 0.000000
vt 0.397534 0.000000
vt 0.442741 0.000000
vt 0.500000 0.220716
vt 0.496766 0.250000
vt 0.493532 0.250000
vt 0.490298 0.250000
vt 0.487064 0.250000
vt 0.483830 0.250000
vt 0.480596 0.250000
vt 0.477362 0.250000
vt 0.474128 0.250000
vt 0.470894 0.250000
vt 0.467660 0.250000
vt 0.464426 0.250000
vt 0.461192 0.250000
vt 0.457958 0.250000
vt 0.454724 0.250000
vt 0.451490 0.250000
vt 0.448256 0.250000
vt 0.445022 0.250000
vt 0.441787 0.250000
vt 0.375000 0.166753
s 0
f 63/29/13 67/29/13 68/30/13 64/30/13
f 19/31/14 20/32/14 23/32/14 22/31/14
f 26/33/15 65/33/15 66/34/15 27/34/15
f 29/35/16 30/35/16 36/35/16 37/35/16 38/35/16 39/35/16 40/35/16 41/35/16 42/35/16 43/35/16 44/35/16 45/35/16 46/35/16 47/35/16 48/35/16 49/35/16 50/35/16 51/35/16 52/35/16 20/35/16 23/35/16 22/35/16 19/35/16
f 28/36/17 31/37/17 30/38/17 29/39/17
f 25/40/13 31/37/13 28/36/13 24/41/13
f 34/42/18 33/43/18 32/44/18 35/45/18
f 27/34/19 33/43/19 34/42/19 26/46/19
f 53/41/15 54/47/15 25/47/15 24/41/15
f 59/47/20 62/41/20 61/48/20 60/49/20
f 54/47/21 53/41/21 62/41/21 59/47/21
f 56/48/19 55/49/19 60/49/19 61/48/19
f 35/45/22 32/44/22 18/50/22 21/51/22
f 65/33/19 71/33/19 70/34/19 66/34/19
f 55/49/15 56/48/15 63/29/15 64/30/15
f 68/30/15 67/29/15 69/34/15 70/34/15 71/33/15
f 66/34/23 70/34/23 67/29/23 63/29/23 56/48/23 61/48/23 62/41/23 53/41/23 24/41/23 28/36/23 29/52/23 19/31/23 18/50/23 32/44/23 33/43/23 27/34/23
f 64/53/24 68/53/24 71/54/24 65/54/24 26/54/24 34/55/24 35/56/24 21/51/24 17/57/24 20/32/24 52/58/24 51/59/24 50/60/24 49/61/24 48/62/24 47/63/24 46/64/24 45/65/24 44/66/24 43/67/24 42/68/24 41/69/24 40/70/24 39/71/24 38/72/24 37/73/24 36/74/24 30/75/24 31/37/24 25/40/24 54/40/24 59/40/24 60/76/24 55/76/24
f 20/32/15 19/31/15 18/50/15 21/51/15
l 55 58
l 17 57
o way_cover_lower
v 1.410993 -0.779105 -0.823057
v 1.410993 -0.944895 -1.588696
v 1.410993 -0.779105 -1.588696
v 2.321716 -0.944895 -0.823057
v 2.321716 -0.944895 -1.588696
v 2.321716 -0.779105 -1.588696
v 1.410993 -0.944895 -0.823057
v 2.321716 -0.779105 -0.823057
v 1.410993 -0.724755 -1.205876
v 2.321716 -0.944895 -1.205876
v 1.410993 -0.944895 -1.205876
v 2.321716 -0.724755 -1.205876
vn -1.0000 -0.0000 -0.0000
vn -0.0000 -0.0000 -1.0000
vn 1.0000 -0.0000 -0.0000
vn -0.0000 0.9901 0.1406
vn -0.0000 -0.0000 1.0000
vn -0.0000 0.9901 -0.1406
vn -0.0000 -1.0000 -0.0000
vt 0.375000 0.125000
vt 0.625000 0.125000
vt 0.625000 0.250000
vt 0.375000 0.250000
vt 0.625000 0.500000
vt 0.375000 0.500000
vt 0.375000 0.625000
vt 0.625000 0.625000
vt 0.625000 0.750000
vt 0.375000 0.750000
vt 0.875000 0.625000
vt 0.875000 0.750000
vt 0.625000 1.000000
vt 0.375000 1.000000
vt 0.875000 0.500000
vt 0.375000 0.000000
vt 0.625000 0.000000
vt 0.125000 0.500000
vt 0.125000 0.750000
vt 0.125000 0.625000
s 0
f 82/77/25 80/78/25 74/79/25 73/80/25
f 73/80/26 74/79/26 77/81/26 76/82/26
f 81/83/27 83/84/27 79/85/27 75/86/27
f 83/84/28 80/87/28 72/88/28 79/85/28
f 75/86/29 79/85/29 72/89/29 78/90/29
f 77/81/30 74/91/30 80/87/30 83/84/30
f 76/82/27 77/81/27 83/84/27 81/83/27
f 78/92/25 72/93/25 80/78/25 82/77/25
f 73/94/31 76/82/31 81/83/31 75/86/31 78/95/31 82/96/31
o spindle_head
v 1.034547 0.101161 -0.999433
v 1.034547 0.101161 -1.431457
v 1.621437 0.133861 -1.141857
v 1.740910 0.276343 -1.431457
v 1.129304 0.101161 -1.431457
v 1.607536 0.133861 -1.143227
v 1.316164 0.276343 -1.431457
v 1.124636 0.101161 -0.999433
v 1.594170 0.133861 -1.147281
v 1.740910 0.276351 -0.999433
v 1.314775 0.276381 -0.999433
v 1.581852 0.133861 -1.153865
v 1.128423 0.101161 -0.999433
v 1.468527 0.893723 -0.999433
v 1.571055 0.133861 -1.162726
v 1.740910 0.575846 -1.431457
v 1.468527 0.893723 -1.431457
v 1.562194 0.133861 -1.173523
v 1.740910 0.575830 -0.999433
v 1.468527 0.567732 -1.431457
v 1.555610 0.133861 -1.185841
v 1.034547 0.567718 -0.999433
v 1.551555 0.133861 -1.199207
v 1.468547 0.567716 -0.999433
v 1.295664 0.893723 -1.431457
v 1.550186 0.133861 -1.213108
v 1.295664 0.571212 -1.431457
v 1.295666 0.893723 -0.999433
v 1.551555 0.133861 -1.227008
v 1.295645 0.567717 -0.999433
v 1.034547 0.571314 -1.431457
v 1.555610 0.133861 -1.240374
v 1.562194 0.133861 -1.252692
v 1.571055 0.133861 -1.263489
v 1.581852 0.133861 -1.272350
v 1.594170 0.133861 -1.278934
v 1.607536 0.133861 -1.282989
v 1.621437 0.133861 -1.284358
v 1.635337 0.133861 -1.282989
v 1.648703 0.133861 -1.278934
v 1.661021 0.133861 -1.272350
v 1.671818 0.133861 -1.263489
v 1.680679 0.133861 -1.252692
v 1.687263 0.133861 -1.240374
v 1.691318 0.133861 -1.227008
v 1.692687 0.133861 -1.213108
v 1.691318 0.133861 -1.199207
v 1.687263 0.133861 -1.185841
v 1.680679 0.133861 -1.173523
v 1.671818 0.133861 -1.162726
v 1.661021 0.133861 -1.153865
v 1.648703 0.133861 -1.147281
v 1.635337 0.133861 -1.143227
v 1.550186 0.276347 -1.213108
v 1.551555 0.276347 -1.199207
v 1.551555 0.276347 -1.227008
v 1.571055 0.276346 -1.263489
v 1.562194 0.276346 -1.252692
v 1.555610 0.276346 -1.240374
v 1.594170 0.276346 -1.278934
v 1.621437 0.276348 -1.141857
v 1.621437 0.276345 -1.284358
v 1.607536 0.276348 -1.143227
v 1.607536 0.276346 -1.282989
v 1.581852 0.276346 -1.272350
v 1.648703 0.276348 -1.147281
v 1.661020 0.276348 -1.153865
v 1.648703 0.276346 -1.278934
v 1.671818 0.276348 -1.162726
v 1.671818 0.276346 -1.263489
v 1.661021 0.276348 -1.153865
v 1.661021 0.276346 -1.272350
v 1.687263 0.276346 -1.240374
v 1.692687 0.276347 -1.213108
v 1.691318 0.276347 -1.199207
v 1.691318 0.276347 -1.227008
v 1.680679 0.276348 -1.173523
v 1.687263 0.276347 -1.185841
v 1.680679 0.276346 -1.252692
v 1.635337 0.276346 -1.282989
v 1.635337 0.276348 -1.143227
v 1.555610 0.276347 -1.185841
v 1.562194 0.276348 -1.173523
v 1.571055 0.276348 -1.162726
v 1.594170 0.276348 -1.147281
v 1.581852 0.276348 -1.153865
vn -0.0000 -0.0000 -1.0000
vn -0.0000 -1.0000 -0.0000
vn 1.0000 -0.0000 -0.0000
vn -0.0000 -1.0000 0.0001
vn 0.6808 -0.7325 0.0018
vn 0.0002 1.0000 0.0082
vn -0.0000 1.0000 -0.0000
vn -0.0000 -0.0000 1.0000
vn -0.0298 0.9996 -0.0000
vn -1.0000 -0.0000 -0.0000
vn -0.0980 -0.0000 0.9952
vn -0.2903 -0.0000 0.9569
vn -0.4714 -0.0000 0.8819
vn -0.6344 -0.0000 0.7730
vn -0.7730 -0.0000 0.6344
vn -0.8819 -0.0000 0.4714
vn -0.9569 -0.0000 0.2903
vn -0.9952 -0.0000 0.0980
vn -0.9952 -0.0000 -0.0980
vn -0.9569 -0.0000 -0.2903
vn -0.8819 -0.0000 -0.4714
vn -0.7730 -0.0000 -0.6344
vn -0.6344 -0.0000 -0.7730
vn -0.4714 -0.0000 -0.8819
vn 0.2903 -0.0000 0.9569
vn -0.0980 -0.0000 -0.9952
vn 0.0980 -0.0000 -0.9952
vn 0.2903 -0.0000 -0.9569
vn 0.4714 -0.0000 -0.8819
vn 0.6344 -0.0000 -0.7730
vn 0.7730 -0.0000 -0.6344
vn 0.8819 -0.0000 -0.4714
vn 0.9569 -0.0000 -0.2903
vn 0.9952 -0.0000 -0.0980
vn 0.9952 -0.0000 0.0980
vn 0.9569 -0.0000 0.2903
vn 0.8819 -0.0000 0.4714
vn 0.7730 -0.0000 0.6344
vn 0.6344 -0.0000 0.7730
vn 0.4714 -0.0000 0.8819
vn 0.0980 -0.0000 0.9952
vt 0.522172 0.403448
vt 0.522172 0.500000
vt 0.430258 0.500000
vt 0.430258 0.349440
vt 0.375000 0.283204
vt 0.375000 0.250000
vt 0.523301 0.250000
vt 0.523269 0.342174
vt 0.125000 0.500000
vt 0.158204 0.500000
vt 0.156549 0.750000
vt 0.125000 0.750000
vt 0.430261 0.750000
vt 0.522167 0.750000
vt 0.433900 0.662964
vt 0.462335 0.868988
vt 0.432685 0.584176
vt 0.432942 0.578166
vt 0.433227 0.573478
vt 0.433545 0.570436
vt 0.433906 0.569343
vt 0.434320 0.570440
vt 0.434792 0.573856
vt 0.435318 0.579581
vt 0.435883 0.587446
vt 0.436462 0.597117
vt 0.437021 0.608118
vt 0.437518 0.619860
vt 0.437910 0.631692
vt 0.438160 0.642960
vt 0.438236 0.653068
vt 0.438125 0.661521
vt 0.437827 0.667966
vt 0.437360 0.672207
vt 0.436755 0.674199
vt 0.436057 0.674040
vt 0.435315 0.671931
vt 0.434581 0.668142
vt 0.433900 0.662964
vt 0.433306 0.656667
vt 0.432822 0.649487
vt 0.432459 0.641629
vt 0.432216 0.633287
vt 0.432088 0.624653
vt 0.432064 0.615923
vt 0.432129 0.607301
vt 0.432266 0.598992
vt 0.432456 0.591206
vt 0.375000 0.967109
vt 0.522167 0.000000
vt 0.522167 0.276500
vt 0.721552 0.750000
vt 0.721552 0.500000
vt 0.782827 0.500000
vt 0.782826 0.750000
vt 0.375000 0.000000
vt 0.522167 0.460367
vt 0.625000 0.460345
vt 0.625000 0.276522
vt 0.625000 0.403448
vt 0.625000 0.342174
vt 1.000000 1.000000
vt 1.000000 0.500046
vt 0.968750 0.500046
vt 0.968750 1.000000
vt 0.937500 0.500046
vt 0.937500 1.000000
vt 0.906250 0.500045
vt 0.906250 1.000000
vt 0.875000 0.500045
vt 0.875000 1.000000
vt 0.843750 0.500046
vt 0.843750 1.000000
vt 0.812500 0.500048
vt 0.812500 1.000000
vt 0.781250 0.500049
vt 0.781250 1.000000
vt 0.750000 0.500050
vt 0.750000 1.000000
vt 0.718750 0.500051
vt 0.718750 1.000000
vt 0.687500 0.500052
vt 0.687500 1.000000
vt 0.656250 0.500053
vt 0.656250 1.000000
vt 0.625000 0.500054
vt 0.625000 1.000000
vt 0.593750 0.500054
vt 0.593750 1.000000
vt 0.562500 0.500055
vt 0.562500 1.000000
vt 0.531250 1.000000
vt 0.531250 0.500055
vt 0.500000 0.500055
vt 0.500000 1.000000
vt 0.468750 0.500055
vt 0.468750 1.000000
vt 0.437500 0.500055
vt 0.437500 1.000000
vt 0.406250 0.500054
vt 0.406250 1.000000
vt 0.375000 0.500054
vt 0.375000 1.000000
vt 0.343750 0.500053
vt 0.343750 1.000000
vt 0.312500 0.500052
vt 0.312500 1.000000
vt 0.281250 0.500051
vt 0.281250 1.000000
vt 0.250000 0.500050
vt 0.250000 1.000000
vt 0.218750 0.500049
vt 0.218750 1.000000
vt 0.187500 0.500048
vt 0.187500 1.000000
vt 0.156250 0.500048
vt 0.156250 1.000000
vt 0.125000 0.500047
vt 0.125000 1.000000
vt 0.093750 0.500046
vt 0.093750 1.000000
vt 0.093747 0.500046
vt 0.062500 0.500046
vt 0.062500 1.000000
vt 0.010000 0.250000
vt 0.014612 0.296822
vt 0.028269 0.341844
vt 0.050447 0.383337
vt 0.080294 0.419706
vt 0.116663 0.449553
vt 0.158156 0.471731
vt 0.203178 0.485388
vt 0.250000 0.490000
vt 0.296822 0.485388
vt 0.341844 0.471731
vt 0.383337 0.449553
vt 0.419706 0.419706
vt 0.449553 0.383337
vt 0.471731 0.341844
vt 0.485388 0.296822
vt 0.490000 0.250000
vt 0.485388 0.203178
vt 0.471731 0.158156
vt 0.449553 0.116663
vt 0.419706 0.080294
vt 0.383337 0.050447
vt 0.341844 0.028269
vt 0.296822 0.014612
vt 0.250000 0.010000
vt 0.203178 0.014612
vt 0.158156 0.028269
vt 0.116663 0.050447
vt 0.080294 0.080294
vt 0.050447 0.116663
vt 0.028269 0.158156
vt 0.014612 0.203178
vt 0.031250 0.500046
vt 0.031250 1.000000
vt 0.000000 0.500046
vt 0.000000 1.000000
s 0
f 103/97/32 99/98/32 87/99/32 90/100/32 88/101/32 85/102/32 114/103/32 110/104/32
f 85/105/33 88/106/33 91/107/33 84/108/33
f 93/109/34 87/99/34 99/98/34 102/110/34
f 150/111/35 93/109/35 94/112/35 90/100/35 87/99/35 155/113/35 151/114/35 163/115/35 145/116/35 147/117/35 143/118/35 148/119/35 140/120/35 141/121/35 142/122/35 139/123/35 137/124/35 138/125/35 165/126/35 166/127/35 167/128/35 169/129/35 168/130/35 146/131/35 144/132/35 164/133/35 149/134/35
f 155/113/33 87/99/33 93/109/33 150/111/33 154/135/33 152/136/33 160/137/33 161/138/33 158/139/33 157/140/33 159/141/33 156/142/33 162/143/33 153/144/33
f 137/124/33 139/123/33 142/122/33 141/121/33 140/120/33 148/119/33 143/118/33 147/117/33 145/116/33 163/115/33 151/114/33 155/113/33 153/144/33 162/143/33 156/142/33 159/141/33 157/140/33 158/139/33 161/138/33 160/137/33 152/136/33 154/135/33 150/111/33 149/134/33 164/133/33 144/132/33 146/131/33 168/130/33 169/129/33 167/128/33 166/127/33 165/126/33 138/125/33
f 96/145/36 91/107/36 88/106/36 90/100/36 94/112/36
f 110/104/37 114/103/37 105/146/37 113/147/37
f 97/148/38 100/149/38 108/150/38 111/151/38
f 105/146/39 84/152/39 96/145/39 94/112/39 93/109/39 102/110/39 107/153/39 113/147/39
f 107/153/39 97/154/39 111/155/39 113/147/39
f 102/110/40 99/98/40 103/97/40 107/153/40
f 97/154/34 107/153/34 103/97/34 100/156/34
f 103/97/32 110/104/32 108/157/32 100/156/32
f 105/146/41 114/103/41 85/102/41 84/152/41
f 113/147/41 111/155/41 108/150/41 110/104/41
f 86/158/42 144/159/42 146/160/42 89/161/42
f 89/161/43 146/160/43 168/162/43 92/163/43
f 92/163/44 168/162/44 169/164/44 95/165/44
f 95/165/45 169/164/45 167/166/45 98/167/45
f 167/166/46 166/168/46 101/169/46 98/167/46
f 166/168/47 165/170/47 104/171/47 101/169/47
f 165/170/48 138/172/48 106/173/48 104/171/48
f 138/172/49 137/174/49 109/175/49 106/173/49
f 137/174/50 139/176/50 112/177/50 109/175/50
f 139/176/51 142/178/51 115/179/51 112/177/51
f 142/178/52 141/180/52 116/181/52 115/179/52
f 141/180/53 140/182/53 117/183/53 116/181/53
f 140/182/54 148/184/54 118/185/54 117/183/54
f 148/184/55 143/186/55 119/187/55 118/185/55
f 143/186/56 119/187/56 120/188/56 147/189/56
f 147/189/57 145/190/57 121/191/57 120/188/57
f 145/190/58 163/192/58 122/193/58 121/191/58
f 163/192/59 151/194/59 123/195/59 122/193/59
f 151/194/60 155/196/60 124/197/60 123/195/60
f 155/196/61 153/198/61 125/199/61 124/197/61
f 125/199/62 153/198/62 162/200/62 126/201/62
f 126/201/63 162/200/63 156/202/63 127/203/63
f 127/203/64 156/202/64 159/204/64 128/205/64
f 128/205/65 159/204/65 157/206/65 129/207/65
f 129/207/66 157/206/66 158/208/66 130/209/66
f 130/209/67 158/208/67 161/210/67 131/211/67
f 131/211/68 161/210/68 160/212/68 132/213/68
f 132/213/69 160/212/69 152/214/69 133/215/69
f 133/215/70 152/214/70 154/216/70 134/217/70
f 134/217/71 154/216/71 150/218/71 149/219/71 135/220/71
f 129/221/33 130/222/33 131/223/33 132/224/33 133/225/33 134/226/33 135/227/33 136/228/33 86/229/33 89/230/33 92/231/33 95/232/33 98/233/33 101/234/33 104/235/33 106/236/33 109/237/33 112/238/33 115/239/33 116/240/33 117/241/33 118/242/33 119/243/33 120/244/33 121/245/33 122/246/33 123/247/33 124/248/33 125/249/33 126/250/33 127/251/33 128/252/33
f 135/220/56 149/219/56 164/253/56 136/254/56
f 136/254/72 164/253/72 144/255/72 86/256/72
o table
v 1.862149 -0.470071 -0.716709
v 1.362370 -0.531448 -1.590503
v 1.862149 -0.470071 -1.706433
v 1.862149 -0.531448 -0.716709
v 1.862149 -0.531448 -1.706433
v 1.362370 -0.531448 -1.706433
v 1.362370 -0.531448 -0.716709
v 1.362370 -0.470071 -1.706433
v 1.362370 -0.470071 -0.716709
vn -1.0000 -0.0000 -0.0000
vn -0.0000 -0.0000 -1.0000
vn 1.0000 -0.0000 -0.0000
vn -0.0000 -0.0000 1.0000
vn -0.0000 -1.0000 -0.0000
vn -0.0000 1.0000 -0.0000
vt 0.500000 0.000000
vt 0.625000 0.000000
vt 0.625000 0.250000
vt 0.500000 0.250000
vt 0.500000 0.220716
vt 0.625000 0.500000
vt 0.500000 0.500000
vt 0.625000 0.750000
vt 0.500000 0.750000
vt 0.625000 1.000000
vt 0.500000 1.000000
vt 0.875000 0.500000
vt 0.875000 0.750000
s 0
f 176/257/73 178/258/73 177/259/73 175/260/73 171/261/73
f 175/260/74 177/259/74 172/262/74 174/263/74
f 174/263/75 172/262/75 170/264/75 173/265/75
f 173/265/76 170/264/76 178/266/76 176/267/76
f 171/261/77 175/260/77 174/263/77 173/265/77 176/257/77
f 172/262/78 177/268/78 178/269/78 170/264/78
